<svg width="64" height="24" viewBox="0 0 64 24" fill="none" xmlns="http://www.w3.org/2000/svg">
<g clip-path="url(#clip0_601_162)">
<path d="M20.01 15.38C18.78 15.38 17.59 15.18 16.48 14.82C16.13 14.7 15.74 14.79 15.47 15.06L13.9 17.03C11.07 15.68 8.42 13.13 7.01 10.2L8.96 8.54C9.23 8.26 9.31 7.87 9.2 7.52C8.83 6.41 8.64 5.22 8.64 3.99C8.64 3.45 8.19 3 7.65 3H4.19C3.65 3 3 3.24 3 3.99C3 13.28 10.73 21 20.01 21C20.72 21 21 20.37 21 19.82V16.37C21 15.83 20.55 15.38 20.01 15.38Z" fill="white"/>
<mask id="mask0_601_162" style="mask-type:alpha" maskUnits="userSpaceOnUse" x="10" y="-2" width="16" height="16">
<rect x="10" y="-2" width="16" height="16" fill="#9DA3A7"/>
</mask>
<g mask="url(#mask0_601_162)">
<path d="M17.1166 10.8834V6.88335H13.1166V5.11665H17.1166V1.11665H18.8833V5.11665H22.8833V6.88335H18.8833V10.8834H17.1166Z" fill="white"/>
</g>
</g>
<g clip-path="url(#clip1_601_162)">
<path d="M52 8C53.1 8 54 7.1 54 6C54 4.9 53.1 4 52 4C50.9 4 50 4.9 50 6C50 7.1 50.9 8 52 8ZM52 10C50.9 10 50 10.9 50 12C50 13.1 50.9 14 52 14C53.1 14 54 13.1 54 12C54 10.9 53.1 10 52 10ZM52 16C50.9 16 50 16.9 50 18C50 19.1 50.9 20 52 20C53.1 20 54 19.1 54 18C54 16.9 53.1 16 52 16Z" fill="white"/>
</g>
<defs>
<clipPath id="clip0_601_162">
<rect width="24" height="24" fill="white"/>
</clipPath>
<clipPath id="clip1_601_162">
<rect width="24" height="24" fill="white" transform="translate(40)"/>
</clipPath>
</defs>
</svg>
